<svg width="1987" height="600" viewBox="0 0 1987 600" fill="none" xmlns="http://www.w3.org/2000/svg">
<path d="M256.719 516.009C232.107 492.516 88.9126 325.828 74.3693 297.86C59.8261 269.893 74.3693 222.907 123.592 222.907C172.816 222.907 277.974 231.857 310.417 238.569C342.859 245.281 358.521 269.893 358.521 314.641C358.521 359.389 350.691 439.937 342.859 481.329C335.028 522.721 281.33 539.502 256.719 516.009Z" fill="#ffffff"/>
<path fill-rule="evenodd" clip-rule="evenodd" d="M133.695 207.452C135.497 207.315 137.35 207.245 139.254 207.245C188.478 207.245 293.636 216.195 326.079 222.907C358.521 229.619 374.183 254.231 374.183 298.979C374.183 342.498 366.777 419.876 359.167 462.168C382.89 460.314 407.833 443.478 413.024 416.043C421.012 373.819 429 291.653 429 246.006C429 200.358 413.024 175.252 379.929 168.405C346.835 161.558 239.563 152.428 189.35 152.428C150.435 152.428 132.769 181.217 133.695 207.452Z" fill="#FF0000"/>
<ellipse cx="349.572" cy="107.68" rx="34.68" ry="34.68" fill="#FF0000"/>
<path d="M528.043 395V176.738H613.883C638.688 176.738 657.926 183.232 671.598 196.221C685.367 209.209 692.252 226.494 692.252 248.076C692.252 263.018 688.932 275.811 682.291 286.455C675.65 297.002 666.129 304.912 653.727 310.186L700.016 395H649.039L607.73 317.656H574.039V395H528.043ZM574.039 280.596H605.24C631.607 280.596 644.791 269.756 644.791 248.076C644.791 237.236 641.52 228.936 634.977 223.174C628.434 217.412 618.473 214.531 605.094 214.531H574.039V280.596ZM771.061 398.076C755.436 398.076 742.447 394.023 732.096 385.918C721.842 377.715 716.715 365.508 716.715 349.297C716.715 337.09 719.547 327.52 725.211 320.586C730.973 313.555 738.541 308.428 747.916 305.205C757.291 301.885 767.35 299.736 778.092 298.76C792.35 297.393 802.506 295.977 808.561 294.512C814.713 292.949 817.789 289.531 817.789 284.258V283.525C817.789 276.787 815.641 271.562 811.344 267.852C807.047 264.141 800.846 262.285 792.74 262.285C784.635 262.285 777.994 264.043 772.818 267.559C767.74 271.074 764.371 275.566 762.711 281.035L721.402 274.443C725.309 260.186 733.512 249.102 746.012 241.191C758.609 233.184 774.234 229.18 792.887 229.18C804.996 229.18 816.373 231.084 827.018 234.893C837.76 238.701 846.451 244.707 853.092 252.91C859.732 261.016 863.053 271.562 863.053 284.551V395H820.133V372.148H818.814C814.811 379.863 808.854 386.113 800.943 390.898C793.131 395.684 783.17 398.076 771.061 398.076ZM759.928 347.832C759.928 354.082 762.174 358.818 766.666 362.041C771.256 365.166 777.018 366.729 783.951 366.729C793.912 366.729 802.066 363.848 808.414 358.086C814.859 352.324 818.082 345.146 818.082 336.553V319.121C816.324 320.293 813.541 321.367 809.732 322.344C806.021 323.32 802.066 324.15 797.867 324.834C793.668 325.42 789.908 325.957 786.588 326.445C778.58 327.617 772.135 329.912 767.252 333.33C762.369 336.65 759.928 341.484 759.928 347.832ZM944.938 300.371V395H899.527V231.23H944.205V260.381H945.816C949.527 250.811 955.436 243.242 963.541 237.676C971.646 232.012 981.754 229.18 993.863 229.18C1010.95 229.18 1024.62 234.697 1034.88 245.732C1045.23 256.67 1050.41 271.709 1050.41 290.85V395H1005V298.906C1005 288.848 1002.41 280.986 997.232 275.322C992.154 269.658 985.074 266.826 975.992 266.826C966.812 266.826 959.342 269.805 953.58 275.762C947.818 281.621 944.938 289.824 944.938 300.371ZM1086.73 176.738H1132.14V293.486H1134.63L1186.93 231.23H1239.08L1178.43 302.275L1242.01 395H1188.98L1144.45 328.936L1132.14 342.852V395H1086.73V176.738Z" fill="#ffffff"/>
<path d="M1301.63 176.738L1354.21 342.559H1356.41L1409.15 176.738H1460.27L1384.98 395H1325.65L1250.21 176.738H1301.63ZM1485.46 395V231.23H1530.88V395H1485.46ZM1508.17 210.283C1501.43 210.283 1495.62 208.037 1490.74 203.545C1485.95 199.053 1483.56 193.633 1483.56 187.285C1483.56 180.938 1485.95 175.566 1490.74 171.172C1495.62 166.68 1501.43 164.434 1508.17 164.434C1514.91 164.434 1520.67 166.68 1525.46 171.172C1530.34 175.566 1532.78 180.938 1532.78 187.285C1532.78 193.633 1530.34 199.053 1525.46 203.545C1520.67 208.037 1514.91 210.283 1508.17 210.283ZM1660.22 397.637C1651.43 397.637 1643.96 396.172 1637.81 393.242C1631.75 390.312 1626.77 386.65 1622.87 382.256C1619.06 377.764 1616.08 373.271 1613.93 368.779H1611.88V395H1567.2V176.738H1612.61V258.916H1613.93C1615.98 254.424 1618.86 249.883 1622.57 245.293C1626.38 240.703 1631.36 236.895 1637.52 233.867C1643.77 230.742 1651.43 229.18 1660.51 229.18C1672.53 229.18 1683.51 232.305 1693.47 238.555C1703.53 244.707 1711.59 254.033 1717.64 266.533C1723.7 279.033 1726.72 294.658 1726.72 313.408C1726.72 331.572 1723.79 346.953 1717.94 359.551C1712.08 372.051 1704.12 381.523 1694.06 387.969C1684 394.414 1672.72 397.637 1660.22 397.637ZM1611.59 313.262C1611.59 327.715 1614.57 339.385 1620.52 348.271C1626.58 357.158 1635.07 361.602 1646.01 361.602C1657.14 361.602 1665.64 357.109 1671.5 348.125C1677.36 339.043 1680.29 327.422 1680.29 313.262C1680.29 299.004 1677.36 287.432 1671.5 278.545C1665.74 269.658 1657.24 265.215 1646.01 265.215C1635.07 265.215 1626.58 269.561 1620.52 278.252C1614.57 286.943 1611.59 298.613 1611.59 313.262ZM1831.02 398.223C1814.22 398.223 1799.77 394.805 1787.66 387.969C1775.55 381.133 1766.23 371.416 1759.68 358.818C1753.14 346.123 1749.87 331.133 1749.87 313.848C1749.87 297.051 1753.09 282.305 1759.54 269.609C1766.08 256.914 1775.26 247.002 1787.08 239.873C1798.89 232.744 1812.81 229.18 1828.82 229.18C1843.28 229.18 1856.31 232.256 1867.94 238.408C1879.65 244.561 1888.93 253.789 1895.77 266.094C1902.7 278.398 1906.17 293.828 1906.17 312.383V324.688H1794.55C1795.04 337.09 1798.65 346.807 1805.39 353.838C1812.12 360.869 1820.91 364.385 1831.75 364.385C1839.27 364.385 1845.72 362.773 1851.09 359.551C1856.56 356.328 1860.46 351.641 1862.81 345.488L1904.7 348.271C1901.48 363.311 1893.42 375.42 1880.53 384.6C1867.74 393.682 1851.24 398.223 1831.02 398.223ZM1794.84 296.709H1862.66C1861.59 286.357 1858.27 278.154 1852.7 272.1C1847.13 266.045 1839.32 263.018 1829.26 263.018C1819.11 263.018 1811.05 266.191 1805.09 272.539C1799.23 278.789 1795.82 286.846 1794.84 296.709Z" fill="#FF0000"/>
</svg>
